<?xml version="1.0" encoding="UTF-8" standalone="no"?>
<!-- Created with Inkscape (http://www.inkscape.org/) -->

<svg
   width="15.111189cm"
   height="8.5636749cm"
   viewBox="0 0 15.111189 8.5636749"
   version="1.1"
   id="svg1"
   inkscape:version="1.3.2 (091e20e, 2023-11-25)"
   sodipodi:docname="BandFlattening.svg"
   inkscape:export-filename="BandFlattening.pdf"
   inkscape:export-xdpi="96"
   inkscape:export-ydpi="96"
   xmlns:inkscape="http://www.inkscape.org/namespaces/inkscape"
   xmlns:sodipodi="http://sodipodi.sourceforge.net/DTD/sodipodi-0.dtd"
   xmlns:xlink="http://www.w3.org/1999/xlink"
   xmlns="http://www.w3.org/2000/svg"
   xmlns:svg="http://www.w3.org/2000/svg">
  <sodipodi:namedview
     id="namedview1"
     pagecolor="#ffffff"
     bordercolor="#666666"
     borderopacity="1.0"
     inkscape:showpageshadow="2"
     inkscape:pageopacity="0.0"
     inkscape:pagecheckerboard="0"
     inkscape:deskcolor="#d1d1d1"
     inkscape:document-units="mm"
     inkscape:zoom="0.83872917"
     inkscape:cx="222.95636"
     inkscape:cy="159.76552"
     inkscape:window-width="1440"
     inkscape:window-height="847"
     inkscape:window-x="0"
     inkscape:window-y="25"
     inkscape:window-maximized="1"
     inkscape:current-layer="layer1" />
  <defs
     id="defs1">
    <linearGradient
       id="linearGradient8"
       inkscape:collect="always">
      <stop
         style="stop-color:#000000;stop-opacity:1;"
         offset="0"
         id="stop8" />
      <stop
         style="stop-color:#000000;stop-opacity:0;"
         offset="1"
         id="stop9" />
    </linearGradient>
    <filter
       inkscape:collect="always"
       style="color-interpolation-filters:sRGB"
       id="filter5"
       x="-0.013294578"
       y="-0.24665132"
       width="1.0265892"
       height="1.4933026">
      <feGaussianBlur
         inkscape:collect="always"
         stdDeviation="0.012216547"
         id="feGaussianBlur5" />
    </filter>
    <filter
       inkscape:collect="always"
       style="color-interpolation-filters:sRGB"
       id="filter6"
       x="-0.013294578"
       y="-0.24665132"
       width="1.0265892"
       height="1.4933026">
      <feGaussianBlur
         inkscape:collect="always"
         stdDeviation="0.012216547"
         id="feGaussianBlur6" />
    </filter>
    <linearGradient
       inkscape:collect="always"
       xlink:href="#linearGradient8"
       id="linearGradient12"
       x1="6.7484045"
       y1="6.5066118"
       x2="11.50839"
       y2="6.5066118"
       gradientUnits="userSpaceOnUse" />
    <linearGradient
       inkscape:collect="always"
       xlink:href="#linearGradient8"
       id="linearGradient17"
       gradientUnits="userSpaceOnUse"
       x1="6.7484045"
       y1="6.5066118"
       x2="11.50839"
       y2="6.5066118" />
    <filter
       inkscape:collect="always"
       style="color-interpolation-filters:sRGB"
       id="filter22"
       x="-0.0011655716"
       y="-0.0014334031"
       width="1.0023311"
       height="1.0028668">
      <feGaussianBlur
         inkscape:collect="always"
         stdDeviation="0.0016239125"
         id="feGaussianBlur22" />
    </filter>
  </defs>
  <g
     inkscape:label="Layer 1"
     inkscape:groupmode="layer"
     id="layer1"
     transform="translate(-2.1447193,-6.3200091)">
    <g
       id="g13"
       style="fill:#0000ff">
      <path
         style="fill:#0000ff;stroke:#000000;stroke-width:0.0261016px;stroke-linecap:butt;stroke-linejoin:miter;stroke-opacity:1"
         d="M 6.8136882,6.561396 11.37985,14.688348"
         id="path1"
         sodipodi:nodetypes="cc" />
      <path
         style="fill:#0000ff;stroke:#000000;stroke-width:0.0259573px;stroke-linecap:butt;stroke-linejoin:miter;stroke-opacity:1"
         d="M 6.7820962,14.668908 11.421289,6.5102122"
         id="path4"
         sodipodi:nodetypes="cc" />
      <ellipse
         style="opacity:0.329897;fill:#0000ff;stroke:url(#linearGradient12);stroke-width:0.0646465;filter:url(#filter6)"
         id="path5"
         cx="9.128397"
         cy="6.5066118"
         rx="2.3183496"
         ry="0.12495972" />
      <ellipse
         style="opacity:0.329897;fill:#0000ff;stroke:#000000;stroke-width:0.0646465;filter:url(#filter5)"
         id="ellipse5"
         cx="9.0653057"
         cy="14.697082"
         rx="2.3183496"
         ry="0.12495972" />
      <path
         style="opacity:0.329897;fill:#0000ff;stroke:#000000;stroke-width:2.80289"
         d="m 301.49812,323.96767 c -22.7053,-40.47388 -41.18047,-73.71327 -41.05593,-73.86531 0.12454,-0.15205 7.97109,0.30677 17.43678,1.01958 19.52935,1.47066 130.71535,0.57878 142.39973,-1.14227 3.93452,-0.57953 7.33798,-0.90019 7.56324,-0.71257 0.56907,0.47398 -83.58716,148.36636 -84.40177,148.32385 -0.36282,-0.0189 -19.23674,-33.1494 -41.94205,-73.62328 z"
         id="path12"
         transform="scale(0.02645833)" />
      <path
         style="opacity:0.329897;fill:#0000ff;stroke:#000000;stroke-width:2.80289"
         d="m 260.05509,550.61143 c 1.32086,-3.4082 82.83958,-145.8239 83.4718,-145.82779 0.41052,-0.003 5.32896,8.17744 10.92986,18.17769 5.6009,10.00024 24.16861,43.06829 41.26156,73.48454 l 31.07812,55.30228 -5.64344,-0.779 c -14.52797,-2.00539 -79.74161,-3.11148 -115.19159,-1.95376 -20.40625,0.66642 -39.18624,1.5641 -41.73333,1.99486 -2.88472,0.48785 -4.45832,0.33747 -4.17298,-0.39882 z"
         id="path13"
         transform="scale(0.02645833)" />
    </g>
    <g
       id="g17"
       transform="translate(1.2302839)">
      <path
         style="fill:none;stroke:#000000;stroke-width:0.0261016px;stroke-linecap:butt;stroke-linejoin:miter;stroke-opacity:1"
         d="M 6.8136882,6.561396 11.37985,14.688348"
         id="path14"
         sodipodi:nodetypes="cc" />
      <path
         style="fill:none;stroke:#000000;stroke-width:0.0259573px;stroke-linecap:butt;stroke-linejoin:miter;stroke-opacity:1"
         d="M 6.7820962,14.668908 11.421289,6.5102122"
         id="path15"
         sodipodi:nodetypes="cc" />
      <ellipse
         style="opacity:0.329897;fill:#ff0000;stroke:url(#linearGradient17);stroke-width:0.0646465;filter:url(#filter6)"
         id="ellipse15"
         cx="9.128397"
         cy="6.5066118"
         rx="2.3183496"
         ry="0.12495972" />
      <ellipse
         style="opacity:0.329897;fill:#ff0000;stroke:#000000;stroke-width:0.0646465;filter:url(#filter5)"
         id="ellipse16"
         cx="9.0653057"
         cy="14.697082"
         rx="2.3183496"
         ry="0.12495972" />
      <path
         style="opacity:0.329897;fill:#ff8080;stroke:#000000;stroke-width:2.80289"
         d="m 301.49812,323.96767 c -22.7053,-40.47388 -41.18047,-73.71327 -41.05593,-73.86531 0.12454,-0.15205 7.97109,0.30677 17.43678,1.01958 19.52935,1.47066 130.71535,0.57878 142.39973,-1.14227 3.93452,-0.57953 7.33798,-0.90019 7.56324,-0.71257 0.56907,0.47398 -83.58716,148.36636 -84.40177,148.32385 -0.36282,-0.0189 -19.23674,-33.1494 -41.94205,-73.62328 z"
         id="path16"
         transform="scale(0.02645833)" />
      <path
         style="opacity:0.329897;fill:#ff8080;stroke:#000000;stroke-width:2.80289"
         d="m 260.05509,550.61143 c 1.32086,-3.4082 82.83958,-145.8239 83.4718,-145.82779 0.41052,-0.003 5.32896,8.17744 10.92986,18.17769 5.6009,10.00024 24.16861,43.06829 41.26156,73.48454 l 31.07812,55.30228 -5.64344,-0.779 c -14.52797,-2.00539 -79.74161,-3.11148 -115.19159,-1.95376 -20.40625,0.66642 -39.18624,1.5641 -41.73333,1.99486 -2.88472,0.48785 -4.45832,0.33747 -4.17298,-0.39882 z"
         id="path17"
         transform="scale(0.02645833)" />
    </g>
    <path
       style="opacity:0.84;fill:#bc3276;fill-opacity:0.815686;stroke:#008000;stroke-width:0.1419;stroke-dasharray:none"
       d="m 8.239843,14.45081 c 0.2826093,-0.55271 1.2714621,-2.294177 1.3244359,-2.332461 0.085267,-0.06163 0.2190444,-0.06602 0.2864439,-0.0094 0.047137,0.03959 1.3150142,2.348179 1.3150142,2.394418 0,0.01221 -0.666925,0.0222 -1.4820548,0.0222 H 8.2016271 Z"
       id="path20" />
    <g
       id="path21"
       style="opacity:0.840206;filter:url(#filter22)">
      <path
         style="color:#000000;fill:#c9285f;fill-opacity:0.698039;-inkscape-stroke:none"
         d="m 11.325316,6.5512706 -0.04137,0.078416 C 10.977988,7.2096063 9.9074511,9.0368043 9.8501016,9.0769739 9.7577913,9.1416298 9.612963,9.1462415 9.5399953,9.0868513 9.4889622,9.0453122 8.1163551,6.6230726 8.1163551,6.5745566 m 0,0 c 0,-0.012808 0.7220158,-0.023286 1.60448,-0.023286 h 1.6044809"
         id="path59" />
      <path
         style="color:#000000;fill:#008000;-inkscape-stroke:none"
         d="m 9.7207031,6.4804687 c -0.4415124,10e-8 -0.8434333,0.00163 -1.1347656,0.00586 -0.1456661,0.00211 -0.2633479,0.005 -0.3457031,0.00781 -0.041178,0.00141 -0.072553,0.00423 -0.095703,0.00586 -0.011575,8.154e-4 -0.020527,7.098e-4 -0.029297,0.00195 -0.00438,6.217e-4 -0.00825,0.00181 -0.015625,0.00391 -0.00184,5.232e-4 -0.00755,0.00185 -0.00781,0.00195 -2.62e-4,9.92e-5 -0.00959,0.00381 -0.00977,0.00391 -1.753e-4,9.95e-5 -0.019443,0.015525 -0.019531,0.015625 -4.39e-5,4.99e-5 -0.011697,0.017528 -0.011719,0.017578 -2.21e-5,4.99e-5 -0.00586,0.029247 -0.00586,0.029297 0,1.896e-4 0.00191,0.011457 0.00195,0.011719 4.17e-5,2.617e-4 -4.625e-4,0.00596 0,0.00781 9.249e-4,0.00371 0.0031,0.0055 0.00391,0.00781 0.00161,0.00462 0.00219,0.00775 0.00391,0.011719 0.00344,0.00794 0.00835,0.0185 0.013672,0.029297 0.010647,0.021594 0.02593,0.050128 0.044922,0.085937 0.037983,0.071619 0.091406,0.1696416 0.15625,0.2871094 0.1296885,0.2349357 0.3036519,0.544934 0.4785156,0.8535156 0.1748636,0.3085817 0.3502558,0.6155571 0.4863281,0.8496094 0.068036,0.1170261 0.1271354,0.2161925 0.1699219,0.2871094 0.021393,0.035458 0.037276,0.062939 0.050781,0.083984 0.00675,0.010523 0.012451,0.020076 0.017578,0.027344 0.00256,0.00363 0.005,0.00624 0.00781,0.00977 0.00141,0.00176 0.00385,0.00366 0.00586,0.00586 0.00201,0.0022 0.00937,0.00944 0.00977,0.00977 0.055005,0.04477 0.1236789,0.05886 0.1933593,0.056641 0.06968,-0.00222 0.1413851,-0.022577 0.2011719,-0.064453 8.961e-4,-6.276e-4 0.012451,-0.0083 0.015625,-0.011719 0.00317,-0.00341 0.00521,-0.00651 0.00781,-0.00977 0.00521,-0.00652 0.00959,-0.01486 0.015625,-0.023437 0.012068,-0.017155 0.026946,-0.038476 0.044922,-0.066406 0.035951,-0.05586 0.083849,-0.1332744 0.1406248,-0.2265625 0.113553,-0.1865762 0.263258,-0.4376827 0.419922,-0.7050781 0.313329,-0.5347908 0.657936,-1.1367221 0.8125,-1.4296875 l 0.04102,-0.078125 -0.0625,-0.033203 v -0.070312 z m 0,0.1425782 h 1.4843749 c -0.155683,0.2932 -0.486218,0.8729223 -0.792969,1.3964844 -0.156382,0.2669147 -0.305105,0.5176817 -0.4179684,0.703125 -0.056432,0.092722 -0.1039055,0.168637 -0.1386718,0.2226562 -0.017383,0.02701 -0.030952,0.048193 -0.041016,0.0625 -0.00433,0.00615 -0.00743,0.010656 -0.00977,0.013672 -0.03237,0.021474 -0.076563,0.0338 -0.1191406,0.035156 -0.042259,0.00135 -0.078827,-0.0096 -0.097656,-0.023437 -0.00308,-0.00444 -0.00626,-0.011026 -0.011719,-0.019531 C 9.5639639,8.994648 9.5464136,8.9664854 9.5253906,8.9316406 9.4833446,8.861951 9.425244,8.7650956 9.3574219,8.6484375 9.2217775,8.4151213 9.0457607,8.1070627 8.8710938,7.7988281 8.6964268,7.4905936 8.523801,7.1814426 8.3945313,6.9472656 8.3298964,6.8301771 8.2755622,6.7324051 8.2382813,6.6621094 c -0.00552,-0.01041 -0.00694,-0.016256 -0.011719,-0.025391 0.00772,-2.984e-4 0.010972,2.924e-4 0.019531,0 0.080599,-0.00275 0.1966513,-0.00571 0.3417968,-0.00781 0.2902911,-0.00421 0.6918617,-0.00586 1.1328125,-0.00586 z"
         id="path60"
         sodipodi:nodetypes="sccscsssssssccscssssssscscssccssssccccsccssscccccssssscccsc" />
    </g>
    <path
       style="opacity:0.414948;fill:none;stroke:#000000;stroke-width:0.0356543px;stroke-linecap:butt;stroke-linejoin:miter;stroke-dasharray:0.213926, 0.0713086;stroke-dashoffset:0.235318;stroke-opacity:1"
       d="m 2.1447193,10.536443 15.1111887,0.03122"
       id="path22" />
    <path
       style="fill:none;stroke:#008000;stroke-width:0.1;stroke-linecap:butt;stroke-linejoin:miter;stroke-dasharray:none;stroke-opacity:1"
       d="m 9.0536267,10.630914 c 0,0 0.3492885,-0.623233 0.6466876,-0.615142 0.2528195,0.0069 0.6466877,0.646687 0.6466877,0.646687"
       id="path23"
       sodipodi:nodetypes="csc" />
    <path
       style="fill:none;stroke:#008000;stroke-width:0.1;stroke-linecap:butt;stroke-linejoin:miter;stroke-dasharray:none;stroke-opacity:1"
       d="m 10.346727,10.545676 c 0,0 -0.349288,0.623233 -0.646687,0.615142 -0.25282,-0.0069 -0.646688,-0.646687 -0.646688,-0.646687"
       id="path24"
       sodipodi:nodetypes="csc" />
    <path
       style="opacity:0.329897;fill:#ff0000;stroke:#000000;stroke-width:2.80289;stroke-dasharray:9.64004, 1.60667;stroke-dashoffset:0"
       d=""
       id="path26"
       transform="scale(0.02645833)" />
    <path
       style="opacity:0.881443;fill:#000000;fill-opacity:0;stroke:none;stroke-width:4.50626;stroke-dasharray:none;stroke-dashoffset:0"
       d="m 361.53912,341.29015 c -2.77786,-3.43291 -49.16176,-85.77676 -49.16176,-87.2753 0,-0.36045 24.68019,-0.65535 54.84488,-0.65535 30.16468,0 54.84488,0.29788 54.84488,0.66195 0,2.01694 -47.47161,82.73359 -50.97444,86.67256 -2.15003,2.41773 -7.79454,2.76995 -9.55356,0.59614 z"
       id="path29"
       transform="scale(0.02645833)" />
    <path
       style="opacity:0.881443;fill:#000000;fill-opacity:0;stroke:none;stroke-width:4.50626;stroke-dasharray:none;stroke-dashoffset:0"
       d="m 361.53912,341.29015 c -2.77786,-3.43291 -49.16176,-85.77676 -49.16176,-87.2753 0,-0.36045 24.68019,-0.65535 54.84488,-0.65535 30.16468,0 54.84488,0.29788 54.84488,0.66195 0,2.01694 -47.47161,82.73359 -50.97444,86.67256 -2.15003,2.41773 -7.79454,2.76995 -9.55356,0.59614 z"
       id="path30"
       transform="scale(0.02645833)" />
    <path
       style="opacity:0.881443;fill:#000000;fill-opacity:0;stroke:none;stroke-width:4.50626;stroke-dasharray:none;stroke-dashoffset:0"
       d="m 361.53912,341.29015 c -2.77786,-3.43291 -49.16176,-85.77676 -49.16176,-87.2753 0,-0.36045 24.68019,-0.65535 54.84488,-0.65535 30.16468,0 54.84488,0.29788 54.84488,0.66195 0,2.01694 -47.47161,82.73359 -50.97444,86.67256 -2.15003,2.41773 -7.79454,2.76995 -9.55356,0.59614 z"
       id="path31"
       transform="scale(0.02645833)" />
    <path
       style="opacity:0.881443;fill:#000000;fill-opacity:0;stroke:none;stroke-width:4.50626;stroke-dasharray:none;stroke-dashoffset:0"
       d="m 361.53912,341.29015 c -2.77786,-3.43291 -49.16176,-85.77676 -49.16176,-87.2753 0,-0.36045 24.68019,-0.65535 54.84488,-0.65535 30.16468,0 54.84488,0.29788 54.84488,0.66195 0,2.01694 -47.47161,82.73359 -50.97444,86.67256 -2.15003,2.41773 -7.79454,2.76995 -9.55356,0.59614 z"
       id="path32"
       transform="scale(0.02645833)" />
    <path
       style="opacity:0.881443;fill:#000000;fill-opacity:0;stroke:none;stroke-width:4.50626;stroke-dasharray:none;stroke-dashoffset:0"
       d=""
       id="path33"
       transform="scale(0.02645833)" />
    <path
       style="opacity:0.881443;fill:#000000;fill-opacity:0;stroke:none;stroke-width:4.50626;stroke-dasharray:none;stroke-dashoffset:0"
       d="m 373.99553,378.84981 c -2.20153,-2.20153 -10.52414,-2.76052 -14.38633,-0.96626 -1.90039,0.88286 -1.72844,0.13972 1.11259,-4.80853 6.52307,-11.36128 5.68847,-11.23595 11.26287,-1.69128 5.03837,8.62689 5.72646,11.18166 2.01087,7.46607 z"
       id="path34"
       transform="scale(0.02645833)" />
    <path
       style="opacity:0.881443;fill:#000000;fill-opacity:0;stroke:none;stroke-width:4.50626;stroke-dasharray:none;stroke-dashoffset:0"
       d=""
       id="path35"
       transform="scale(0.02645833)" />
    <path
       style="opacity:0.881443;fill:#000000;fill-opacity:0;stroke:none;stroke-width:4.50626;stroke-dasharray:none;stroke-dashoffset:0"
       d="m 361.53912,341.29015 c -2.77786,-3.43291 -49.16176,-85.77676 -49.16176,-87.2753 0,-0.36045 24.68019,-0.65535 54.84488,-0.65535 30.16468,0 54.84488,0.29788 54.84488,0.66195 0,2.01694 -47.47161,82.73359 -50.97444,86.67256 -2.15003,2.41773 -7.79454,2.76995 -9.55356,0.59614 z"
       id="path36"
       transform="scale(0.02645833)" />
    <path
       style="opacity:0.881443;fill:#000000;fill-opacity:0;stroke:none;stroke-width:4.50626;stroke-dasharray:none;stroke-dashoffset:0"
       d="m 361.53912,341.29015 c -2.77786,-3.43291 -49.16176,-85.77676 -49.16176,-87.2753 0,-0.36045 24.68019,-0.65535 54.84488,-0.65535 30.16468,0 54.84488,0.29788 54.84488,0.66195 0,2.01694 -47.47161,82.73359 -50.97444,86.67256 -2.15003,2.41773 -7.79454,2.76995 -9.55356,0.59614 z"
       id="path37"
       transform="scale(0.02645833)" />
    <path
       style="opacity:0.881443;fill:#000000;fill-opacity:0;stroke:none;stroke-width:4.50626;stroke-dasharray:none;stroke-dashoffset:0"
       d="m 361.53912,341.29015 c -2.77786,-3.43291 -49.16176,-85.77676 -49.16176,-87.2753 0,-0.36045 24.68019,-0.65535 54.84488,-0.65535 30.16468,0 54.84488,0.29788 54.84488,0.66195 0,2.01694 -47.47161,82.73359 -50.97444,86.67256 -2.15003,2.41773 -7.79454,2.76995 -9.55356,0.59614 z"
       id="path38"
       transform="scale(0.02645833)" />
    <path
       style="opacity:0.881443;fill:#000000;fill-opacity:0;stroke:none;stroke-width:4.50626;stroke-dasharray:none;stroke-dashoffset:0"
       d="m 361.53912,341.29015 c -2.77786,-3.43291 -49.16176,-85.77676 -49.16176,-87.2753 0,-0.36045 24.68019,-0.65535 54.84488,-0.65535 30.16468,0 54.84488,0.29788 54.84488,0.66195 0,2.01694 -47.47161,82.73359 -50.97444,86.67256 -2.15003,2.41773 -7.79454,2.76995 -9.55356,0.59614 z"
       id="path39"
       transform="scale(0.02645833)" />
    <path
       style="opacity:0.881443;fill:#000000;fill-opacity:0;stroke:none;stroke-width:4.50626;stroke-dasharray:none;stroke-dashoffset:0"
       d="m 361.53912,341.29015 c -2.77786,-3.43291 -49.16176,-85.77676 -49.16176,-87.2753 0,-0.36045 24.68019,-0.65535 54.84488,-0.65535 30.16468,0 54.84488,0.29788 54.84488,0.66195 0,2.01694 -47.47161,82.73359 -50.97444,86.67256 -2.15003,2.41773 -7.79454,2.76995 -9.55356,0.59614 z"
       id="path40"
       transform="scale(0.02645833)" />
    <path
       style="opacity:0.881443;fill:#000000;fill-opacity:0;stroke:none;stroke-width:2.7462;stroke-dasharray:none;stroke-dashoffset:0"
       d="m 363.16307,342.82624 c -0.67475,-0.17802 -3.65626,-4.47244 -6.62559,-9.54317 -15.60618,-26.65068 -44.82609,-78.52962 -44.82609,-79.58718 0,-0.23935 25.02684,-0.42622 55.6152,-0.41527 l 55.61521,0.0199 -2.12171,3.77443 c -15.27928,27.1811 -32.64543,57.03921 -43.34428,74.52304 -5.05907,8.26743 -6.61863,10.2769 -8.47946,10.92559 -2.32386,0.8101 -3.64924,0.87886 -5.83328,0.30264 z"
       id="path41"
       transform="scale(0.02645833)" />
    <path
       style="opacity:0.881443;fill:#000000;fill-opacity:0;stroke:none;stroke-width:2.7462;stroke-dasharray:none;stroke-dashoffset:0"
       d="m 363.16307,342.82624 c -0.67475,-0.17802 -3.65626,-4.47244 -6.62559,-9.54317 -15.60618,-26.65068 -44.82609,-78.52962 -44.82609,-79.58718 0,-0.23935 25.02684,-0.42622 55.6152,-0.41527 l 55.61521,0.0199 -2.12171,3.77443 c -15.27928,27.1811 -32.64543,57.03921 -43.34428,74.52304 -5.05907,8.26743 -6.61863,10.2769 -8.47946,10.92559 -2.32386,0.8101 -3.64924,0.87886 -5.83328,0.30264 z"
       id="path42"
       transform="scale(0.02645833)" />
    <path
       style="opacity:0.881443;fill:#000000;fill-opacity:0;stroke:none;stroke-width:2.7462;stroke-dasharray:none;stroke-dashoffset:0"
       d="m 363.16307,342.82624 c -0.67475,-0.17802 -3.65626,-4.47244 -6.62559,-9.54317 -15.60618,-26.65068 -44.82609,-78.52962 -44.82609,-79.58718 0,-0.23935 25.02684,-0.42622 55.6152,-0.41527 l 55.61521,0.0199 -2.12171,3.77443 c -15.27928,27.1811 -32.64543,57.03921 -43.34428,74.52304 -5.05907,8.26743 -6.61863,10.2769 -8.47946,10.92559 -2.32386,0.8101 -3.64924,0.87886 -5.83328,0.30264 z"
       id="path43"
       transform="scale(0.02645833)" />
    <path
       style="opacity:0.881443;fill:#000000;fill-opacity:0;stroke:none;stroke-width:2.7462;stroke-dasharray:none;stroke-dashoffset:0"
       d="m 363.16307,342.82624 c -0.67475,-0.17802 -3.65626,-4.47244 -6.62559,-9.54317 -15.60618,-26.65068 -44.82609,-78.52962 -44.82609,-79.58718 0,-0.23935 25.02684,-0.42622 55.6152,-0.41527 l 55.61521,0.0199 -2.12171,3.77443 c -15.27928,27.1811 -32.64543,57.03921 -43.34428,74.52304 -5.05907,8.26743 -6.61863,10.2769 -8.47946,10.92559 -2.32386,0.8101 -3.64924,0.87886 -5.83328,0.30264 z"
       id="path44"
       transform="scale(0.02645833)" />
    <path
       style="opacity:0.881443;fill:#000000;fill-opacity:0;stroke:none;stroke-width:2.7462;stroke-dasharray:none;stroke-dashoffset:0"
       d="m 363.16307,342.82624 c -0.67475,-0.17802 -3.65626,-4.47244 -6.62559,-9.54317 -15.60618,-26.65068 -44.82609,-78.52962 -44.82609,-79.58718 0,-0.23935 25.02684,-0.42622 55.6152,-0.41527 l 55.61521,0.0199 -2.12171,3.77443 c -15.27928,27.1811 -32.64543,57.03921 -43.34428,74.52304 -5.05907,8.26743 -6.61863,10.2769 -8.47946,10.92559 -2.32386,0.8101 -3.64924,0.87886 -5.83328,0.30264 z"
       id="path45"
       transform="scale(0.02645833)" />
    <path
       style="opacity:0.881443;fill:#000000;fill-opacity:0;stroke:none;stroke-width:2.7462;stroke-dasharray:none;stroke-dashoffset:0"
       d="m 363.16307,342.82624 c -0.67475,-0.17802 -3.65626,-4.47244 -6.62559,-9.54317 -15.60618,-26.65068 -44.82609,-78.52962 -44.82609,-79.58718 0,-0.23935 25.02684,-0.42622 55.6152,-0.41527 l 55.61521,0.0199 -2.12171,3.77443 c -15.27928,27.1811 -32.64543,57.03921 -43.34428,74.52304 -5.05907,8.26743 -6.61863,10.2769 -8.47946,10.92559 -2.32386,0.8101 -3.64924,0.87886 -5.83328,0.30264 z"
       id="path46"
       transform="scale(0.02645833)" />
    <path
       style="opacity:0.881443;fill:#000000;fill-opacity:0;stroke:none;stroke-width:2.7462;stroke-dasharray:none;stroke-dashoffset:0"
       d="m 363.16307,342.82624 c -0.67475,-0.17802 -3.65626,-4.47244 -6.62559,-9.54317 -15.60618,-26.65068 -44.82609,-78.52962 -44.82609,-79.58718 0,-0.23935 25.02684,-0.42622 55.6152,-0.41527 l 55.61521,0.0199 -2.12171,3.77443 c -15.27928,27.1811 -32.64543,57.03921 -43.34428,74.52304 -5.05907,8.26743 -6.61863,10.2769 -8.47946,10.92559 -2.32386,0.8101 -3.64924,0.87886 -5.83328,0.30264 z"
       id="path47"
       transform="scale(0.02645833)" />
    <path
       style="opacity:0.881443;fill:#000000;fill-opacity:0;stroke:none;stroke-width:2.7462;stroke-dasharray:none;stroke-dashoffset:0"
       d="m 363.16307,342.82624 c -0.67475,-0.17802 -3.65626,-4.47244 -6.62559,-9.54317 -15.60618,-26.65068 -44.82609,-78.52962 -44.82609,-79.58718 0,-0.23935 25.02684,-0.42622 55.6152,-0.41527 l 55.61521,0.0199 -2.12171,3.77443 c -15.27928,27.1811 -32.64543,57.03921 -43.34428,74.52304 -5.05907,8.26743 -6.61863,10.2769 -8.47946,10.92559 -2.32386,0.8101 -3.64924,0.87886 -5.83328,0.30264 z"
       id="path48"
       transform="scale(0.02645833)" />
    <path
       style="opacity:0.881443;fill:#000000;fill-opacity:0;stroke:none;stroke-width:2.7462;stroke-dasharray:none;stroke-dashoffset:0"
       d="m 363.16307,342.82624 c -0.67475,-0.17802 -3.65626,-4.47244 -6.62559,-9.54317 -15.60618,-26.65068 -44.82609,-78.52962 -44.82609,-79.58718 0,-0.23935 25.02684,-0.42622 55.6152,-0.41527 l 55.61521,0.0199 -2.12171,3.77443 c -15.27928,27.1811 -32.64543,57.03921 -43.34428,74.52304 -5.05907,8.26743 -6.61863,10.2769 -8.47946,10.92559 -2.32386,0.8101 -3.64924,0.87886 -5.83328,0.30264 z"
       id="path49"
       transform="scale(0.02645833)" />
    <path
       style="opacity:0.881443;fill:#000000;fill-opacity:0;stroke:none;stroke-width:2.7462;stroke-dasharray:none;stroke-dashoffset:0"
       d="m 363.16307,342.82624 c -0.67475,-0.17802 -3.65626,-4.47244 -6.62559,-9.54317 -15.60618,-26.65068 -44.82609,-78.52962 -44.82609,-79.58718 0,-0.23935 25.02684,-0.42622 55.6152,-0.41527 l 55.61521,0.0199 -2.12171,3.77443 c -15.27928,27.1811 -32.64543,57.03921 -43.34428,74.52304 -5.05907,8.26743 -6.61863,10.2769 -8.47946,10.92559 -2.32386,0.8101 -3.64924,0.87886 -5.83328,0.30264 z"
       id="path50"
       transform="scale(0.02645833)" />
    <path
       style="opacity:0.881443;fill:#000000;fill-opacity:0;stroke:none;stroke-width:2.7462;stroke-dasharray:none;stroke-dashoffset:0"
       d="m 363.16307,342.82624 c -0.67475,-0.17802 -3.65626,-4.47244 -6.62559,-9.54317 -15.60618,-26.65068 -44.82609,-78.52962 -44.82609,-79.58718 0,-0.23935 25.02684,-0.42622 55.6152,-0.41527 l 55.61521,0.0199 -2.12171,3.77443 c -15.27928,27.1811 -32.64543,57.03921 -43.34428,74.52304 -5.05907,8.26743 -6.61863,10.2769 -8.47946,10.92559 -2.32386,0.8101 -3.64924,0.87886 -5.83328,0.30264 z"
       id="path51"
       transform="scale(0.02645833)" />
    <g
       inkscape:label=""
       transform="translate(7.6975014,10.712617)"
       id="g53"
       style="fill:#0000ff">
      <g
         fill="#000000"
         fill-opacity="1"
         id="g3"
         transform="matrix(0.0352778,0,0,0.0352778,-0.103933,-0.0706481)"
         style="fill:#0000ff">
        <g
           id="use2"
           transform="translate(1.993,16.112)"
           style="fill:#0000ff">
          <path
             d="m 10.328125,-8.34375 c -0.01563,-0.0625 -0.109375,-0.234375 -0.109375,-0.296875 0,-0.015625 0.03125,-0.03125 0.375,-0.296875 l 2,-1.578125 c 2.78125,-2.140625 3.6875,-2.875 5.109375,-3 0.140625,-0.01563 0.34375,-0.01563 0.34375,-0.359375 0,-0.125 -0.0625,-0.234375 -0.21875,-0.234375 -0.234375,0 -0.484375,0.04687 -0.703125,0.04687 h -0.78125 c -0.640625,0 -1.328125,-0.04687 -1.953125,-0.04687 -0.140625,0 -0.390625,0 -0.390625,0.375 0,0.203125 0.15625,0.21875 0.28125,0.21875 0.21875,0.03125 0.484375,0.109375 0.484375,0.40625 0,0.40625 -0.609375,0.90625 -0.78125,1.03125 l -8.09375,6.296875 1.703125,-6.8125 c 0.1875,-0.703125 0.234375,-0.921875 1.703125,-0.921875 0.390625,0 0.578125,0 0.578125,-0.390625 0,-0.203125 -0.203125,-0.203125 -0.3125,-0.203125 -0.375,0 -0.796875,0.04687 -1.203125,0.04687 h -2.4375 c -0.359375,0 -0.8125,-0.04687 -1.1875,-0.04687 -0.171875,0 -0.390625,0 -0.390625,0.390625 0,0.203125 0.1875,0.203125 0.484375,0.203125 1.265625,0 1.265625,0.171875 1.265625,0.40625 0,0.03125 0,0.15625 -0.078125,0.46875 L 3.21875,-1.53125 C 3.03125,-0.8125 3,-0.59375 1.546875,-0.59375 c -0.390625,0 -0.59375,0 -0.59375,0.359375 C 0.953125,0 1.140625,0 1.265625,0 1.65625,0 2.0625,-0.046875 2.453125,-0.046875 H 4.875 C 5.265625,-0.046875 5.703125,0 6.09375,0 c 0.171875,0 0.390625,0 0.390625,-0.390625 0,-0.203125 -0.1875,-0.203125 -0.5,-0.203125 -1.25,0 -1.25,-0.171875 -1.25,-0.375 0,-0.140625 0.125,-0.65625 0.203125,-1 L 5.75,-5.171875 8.875,-7.625 c 0.609375,1.328125 1.703125,3.96875 2.546875,6 0.0625,0.109375 0.109375,0.234375 0.109375,0.390625 0,0.609375 -0.828125,0.640625 -1.015625,0.640625 -0.1875,0 -0.390625,0 -0.390625,0.390625 C 10.125,0 10.34375,0 10.40625,0 11.140625,0 11.890625,-0.046875 12.625,-0.046875 h 0.984375 c 0.3125,0 0.671875,0.046875 0.96875,0.046875 0.125,0 0.359375,0 0.359375,-0.390625 0,-0.203125 -0.1875,-0.203125 -0.390625,-0.203125 -0.765625,-0.03125 -1.03125,-0.1875 -1.34375,-0.9375 z m 0,0"
             id="path52"
             style="fill:#0000ff" />
        </g>
      </g>
      <g
         fill="#000000"
         fill-opacity="1"
         id="g4"
         transform="matrix(0.0352778,0,0,0.0352778,-0.103933,-0.0706481)"
         style="fill:#0000ff">
        <g
           id="use3"
           transform="translate(19.205,19.211)"
           style="fill:#0000ff">
          <path
             d="m 4.125,-9.1875 c 0,-0.34375 0,-0.34375 -0.28125,-0.34375 C 3.5,-9.15625 2.78125,-8.625 1.3125,-8.625 v 0.421875 c 0.328125,0 1.046875,0 1.828125,-0.375 v 7.46875 c 0,0.515625 -0.046875,0.6875 -1.296875,0.6875 H 1.390625 V 0 c 0.390625,-0.03125 1.78125,-0.03125 2.25,-0.03125 0.46875,0 1.859375,0 2.234375,0.03125 V -0.421875 H 5.4375 c -1.265625,0 -1.3125,-0.171875 -1.3125,-0.6875 z m 0,0"
             id="path53"
             style="fill:#0000ff" />
        </g>
      </g>
    </g>
    <g
       inkscape:label=""
       transform="translate(11.209266,9.8080719)"
       id="g58"
       style="fill:#d40000">
      <g
         fill="#000000"
         fill-opacity="1"
         id="g55"
         transform="matrix(0.0352778,0,0,0.0352778,-0.103933,-0.0706481)"
         style="fill:#d40000">
        <g
           id="g54"
           transform="translate(1.993,16.112)"
           style="fill:#d40000">
          <path
             d="m 10.328125,-8.34375 c -0.01563,-0.0625 -0.109375,-0.234375 -0.109375,-0.296875 0,-0.015625 0.03125,-0.03125 0.375,-0.296875 l 2,-1.578125 c 2.78125,-2.140625 3.6875,-2.875 5.109375,-3 0.140625,-0.01563 0.34375,-0.01563 0.34375,-0.359375 0,-0.125 -0.0625,-0.234375 -0.21875,-0.234375 -0.234375,0 -0.484375,0.04687 -0.703125,0.04687 h -0.78125 c -0.640625,0 -1.328125,-0.04687 -1.953125,-0.04687 -0.140625,0 -0.390625,0 -0.390625,0.375 0,0.203125 0.15625,0.21875 0.28125,0.21875 0.21875,0.03125 0.484375,0.109375 0.484375,0.40625 0,0.40625 -0.609375,0.90625 -0.78125,1.03125 l -8.09375,6.296875 1.703125,-6.8125 c 0.1875,-0.703125 0.234375,-0.921875 1.703125,-0.921875 0.390625,0 0.578125,0 0.578125,-0.390625 0,-0.203125 -0.203125,-0.203125 -0.3125,-0.203125 -0.375,0 -0.796875,0.04687 -1.203125,0.04687 h -2.4375 c -0.359375,0 -0.8125,-0.04687 -1.1875,-0.04687 -0.171875,0 -0.390625,0 -0.390625,0.390625 0,0.203125 0.1875,0.203125 0.484375,0.203125 1.265625,0 1.265625,0.171875 1.265625,0.40625 0,0.03125 0,0.15625 -0.078125,0.46875 L 3.21875,-1.53125 C 3.03125,-0.8125 3,-0.59375 1.546875,-0.59375 c -0.390625,0 -0.59375,0 -0.59375,0.359375 C 0.953125,0 1.140625,0 1.265625,0 1.65625,0 2.0625,-0.046875 2.453125,-0.046875 H 4.875 C 5.265625,-0.046875 5.703125,0 6.09375,0 c 0.171875,0 0.390625,0 0.390625,-0.390625 0,-0.203125 -0.1875,-0.203125 -0.5,-0.203125 -1.25,0 -1.25,-0.171875 -1.25,-0.375 0,-0.140625 0.125,-0.65625 0.203125,-1 L 5.75,-5.171875 8.875,-7.625 c 0.609375,1.328125 1.703125,3.96875 2.546875,6 0.0625,0.109375 0.109375,0.234375 0.109375,0.390625 0,0.609375 -0.828125,0.640625 -1.015625,0.640625 -0.1875,0 -0.390625,0 -0.390625,0.390625 C 10.125,0 10.34375,0 10.40625,0 11.140625,0 11.890625,-0.046875 12.625,-0.046875 h 0.984375 c 0.3125,0 0.671875,0.046875 0.96875,0.046875 0.125,0 0.359375,0 0.359375,-0.390625 0,-0.203125 -0.1875,-0.203125 -0.390625,-0.203125 -0.765625,-0.03125 -1.03125,-0.1875 -1.34375,-0.9375 z m 0,0"
             id="path54"
             style="fill:#d40000" />
        </g>
      </g>
      <g
         fill="#000000"
         fill-opacity="1"
         id="g57"
         transform="matrix(0.0352778,0,0,0.0352778,-0.103933,-0.0706481)"
         style="fill:#d40000">
        <g
           id="g56"
           transform="translate(19.205,19.211)"
           style="fill:#d40000">
          <path
             d="M 6.3125,-2.40625 H 6 c -0.046875,0.234375 -0.15625,1.03125 -0.3125,1.265625 -0.09375,0.125 -0.90625,0.125 -1.34375,0.125 H 1.6875 c 0.390625,-0.328125 1.265625,-1.25 1.640625,-1.59375 2.1875,-2.015625 2.984375,-2.75 2.984375,-4.171875 0,-1.65625 -1.3125,-2.75 -2.96875,-2.75 -1.671875,0 -2.640625,1.40625 -2.640625,2.640625 0,0.734375 0.625,0.734375 0.671875,0.734375 0.296875,0 0.671875,-0.21875 0.671875,-0.671875 C 2.046875,-7.234375 1.78125,-7.5 1.375,-7.5 1.25,-7.5 1.21875,-7.5 1.171875,-7.484375 1.453125,-8.46875 2.21875,-9.125 3.15625,-9.125 4.375,-9.125 5.125,-8.109375 5.125,-6.78125 5.125,-5.5625 4.421875,-4.5 3.59375,-3.578125 L 0.703125,-0.34375 V 0 H 5.9375 Z m 0,0"
             id="path55"
             style="fill:#d40000" />
        </g>
      </g>
    </g>
  </g>
</svg>
