<?xml version="1.0" encoding="UTF-8" standalone="no"?>
<!-- Created with Inkscape (http://www.inkscape.org/) -->

<svg
   width="18.395cm"
   height="17.790001cm"
   viewBox="0 0 18.395 17.790001"
   version="1.1"
   id="svg1"
   inkscape:version="1.3.2 (091e20e, 2023-11-25)"
   sodipodi:docname="TBGmoire.svg"
   inkscape:export-filename="TBGmoire.pdf"
   inkscape:export-xdpi="96"
   inkscape:export-ydpi="96"
   xmlns:inkscape="http://www.inkscape.org/namespaces/inkscape"
   xmlns:sodipodi="http://sodipodi.sourceforge.net/DTD/sodipodi-0.dtd"
   xmlns="http://www.w3.org/2000/svg"
   xmlns:svg="http://www.w3.org/2000/svg">
  <sodipodi:namedview
     id="namedview1"
     pagecolor="#ffffff"
     bordercolor="#666666"
     borderopacity="1.0"
     inkscape:showpageshadow="2"
     inkscape:pageopacity="0.0"
     inkscape:pagecheckerboard="0"
     inkscape:deskcolor="#d1d1d1"
     inkscape:document-units="mm"
     inkscape:zoom="0.99910289"
     inkscape:cx="350.31427"
     inkscape:cy="339.30439"
     inkscape:window-width="1440"
     inkscape:window-height="847"
     inkscape:window-x="0"
     inkscape:window-y="25"
     inkscape:window-maximized="1"
     inkscape:current-layer="layer1" />
  <defs
     id="defs1">
    <inkscape:perspective
       sodipodi:type="inkscape:persp3d"
       inkscape:vp_x="0 : 2.7900015 : 1"
       inkscape:vp_y="937.28197 : 348.57204 : 0"
       inkscape:vp_z="30 : 2.7900015 : 1"
       inkscape:persp3d-origin="14.999995 : -2.209999 : 1"
       id="perspective11" />
  </defs>
  <g
     inkscape:label="Layer 1"
     inkscape:groupmode="layer"
     id="layer1"
     transform="translate(-3.8170807,-3.1115933)">
    <g
       id="g27"
       transform="translate(1.2711403,2.860066)">
      <path
         sodipodi:type="star"
         style="opacity:0.25;fill:#0000ff;stroke:#000000;stroke-width:0.0622001;stroke-dasharray:none;stroke-opacity:1"
         id="path3"
         inkscape:flatsided="true"
         sodipodi:sides="6"
         sodipodi:cx="4.9211349"
         sodipodi:cy="6.6876965"
         sodipodi:r1="6.9932704"
         sodipodi:r2="6.0563502"
         sodipodi:arg1="1.0471976"
         sodipodi:arg2="1.5707963"
         inkscape:rounded="0"
         inkscape:randomized="0"
         d="m 8.4177699,12.744046 -6.9932704,0 L -2.0721354,6.6876961 1.4245,0.63134647 l 6.9932704,3.4e-7 3.4966346,6.05634999 z"
         transform="translate(5.236593,4.1009463)" />
      <path
         sodipodi:type="star"
         style="opacity:0.25;fill:#ff0000;stroke:#000000;stroke-width:0.0622001;stroke-dasharray:none;stroke-opacity:1"
         id="path4"
         inkscape:flatsided="true"
         sodipodi:sides="6"
         sodipodi:cx="4.9211349"
         sodipodi:cy="6.6876965"
         sodipodi:r1="6.9932704"
         sodipodi:r2="6.0563502"
         sodipodi:arg1="1.0471976"
         sodipodi:arg2="1.5707963"
         inkscape:rounded="0"
         inkscape:randomized="0"
         d="m 8.4177699,12.744046 -6.9932704,0 L -2.0721354,6.6876961 1.4245,0.63134647 l 6.9932704,3.4e-7 3.4966346,6.05634999 z"
         transform="rotate(-16.505989,21.676096,-9.3132635)" />
      <path
         sodipodi:type="star"
         style="opacity:1;fill:none;stroke:#000000;stroke-width:0.0622001;stroke-dasharray:none;stroke-opacity:1"
         id="path5"
         inkscape:flatsided="true"
         sodipodi:sides="6"
         sodipodi:cx="11.783617"
         sodipodi:cy="3.9046309"
         sodipodi:r1="1.5862455"
         sodipodi:r2="1.373729"
         sodipodi:arg1="0.26179939"
         sodipodi:arg2="0.78539816"
         inkscape:rounded="0"
         inkscape:randomized="0"
         d="M 13.315813,4.3151815 12.194168,5.4368264 10.661972,5.0262759 10.251421,3.4940803 11.373066,2.3724354 12.905262,2.7829859 Z"
         inkscape:transform-center-x="1.6050994e-06"
         transform="matrix(1.2008618,0.14685755,-0.14685755,1.2008618,-0.22277275,-3.6420343)" />
      <path
         sodipodi:type="star"
         style="opacity:1;fill:none;stroke:#000000;stroke-width:0.0622001;stroke-dasharray:none;stroke-opacity:1"
         id="path6"
         inkscape:flatsided="true"
         sodipodi:sides="6"
         sodipodi:cx="11.783617"
         sodipodi:cy="3.9046309"
         sodipodi:r1="1.5862455"
         sodipodi:r2="1.373729"
         sodipodi:arg1="0.26179939"
         sodipodi:arg2="0.78539816"
         inkscape:rounded="0"
         inkscape:randomized="0"
         d="M 13.315813,4.3151815 12.194168,5.4368264 10.661972,5.0262759 10.251421,3.4940803 11.373066,2.3724354 12.905262,2.7829859 Z"
         inkscape:transform-center-x="1.6050994e-06"
         transform="matrix(1.2008618,0.14685755,-0.14685755,1.2008618,5.1266096,3.1108989)" />
      <g
         inkscape:label=""
         transform="translate(14.009021,4.4754757)"
         id="g2"
         style="fill:#0000ff">
        <g
           fill="#000000"
           fill-opacity="1"
           id="g3"
           transform="matrix(0.0352778,0,0,0.0352778,-0.103933,-0.0706481)"
           style="fill:#0000ff">
          <g
             id="use2"
             transform="translate(1.993,16.112)"
             style="fill:#0000ff">
            <path
               d="m 10.328125,-8.34375 c -0.01563,-0.0625 -0.109375,-0.234375 -0.109375,-0.296875 0,-0.015625 0.03125,-0.03125 0.375,-0.296875 l 2,-1.578125 c 2.78125,-2.140625 3.6875,-2.875 5.109375,-3 0.140625,-0.01563 0.34375,-0.01563 0.34375,-0.359375 0,-0.125 -0.0625,-0.234375 -0.21875,-0.234375 -0.234375,0 -0.484375,0.04687 -0.703125,0.04687 h -0.78125 c -0.640625,0 -1.328125,-0.04687 -1.953125,-0.04687 -0.140625,0 -0.390625,0 -0.390625,0.375 0,0.203125 0.15625,0.21875 0.28125,0.21875 0.21875,0.03125 0.484375,0.109375 0.484375,0.40625 0,0.40625 -0.609375,0.90625 -0.78125,1.03125 l -8.09375,6.296875 1.703125,-6.8125 c 0.1875,-0.703125 0.234375,-0.921875 1.703125,-0.921875 0.390625,0 0.578125,0 0.578125,-0.390625 0,-0.203125 -0.203125,-0.203125 -0.3125,-0.203125 -0.375,0 -0.796875,0.04687 -1.203125,0.04687 h -2.4375 c -0.359375,0 -0.8125,-0.04687 -1.1875,-0.04687 -0.171875,0 -0.390625,0 -0.390625,0.390625 0,0.203125 0.1875,0.203125 0.484375,0.203125 1.265625,0 1.265625,0.171875 1.265625,0.40625 0,0.03125 0,0.15625 -0.078125,0.46875 L 3.21875,-1.53125 C 3.03125,-0.8125 3,-0.59375 1.546875,-0.59375 c -0.390625,0 -0.59375,0 -0.59375,0.359375 C 0.953125,0 1.140625,0 1.265625,0 1.65625,0 2.0625,-0.046875 2.453125,-0.046875 H 4.875 C 5.265625,-0.046875 5.703125,0 6.09375,0 c 0.171875,0 0.390625,0 0.390625,-0.390625 0,-0.203125 -0.1875,-0.203125 -0.5,-0.203125 -1.25,0 -1.25,-0.171875 -1.25,-0.375 0,-0.140625 0.125,-0.65625 0.203125,-1 L 5.75,-5.171875 8.875,-7.625 c 0.609375,1.328125 1.703125,3.96875 2.546875,6 0.0625,0.109375 0.109375,0.234375 0.109375,0.390625 0,0.609375 -0.828125,0.640625 -1.015625,0.640625 -0.1875,0 -0.390625,0 -0.390625,0.390625 C 10.125,0 10.34375,0 10.40625,0 11.140625,0 11.890625,-0.046875 12.625,-0.046875 h 0.984375 c 0.3125,0 0.671875,0.046875 0.96875,0.046875 0.125,0 0.359375,0 0.359375,-0.390625 0,-0.203125 -0.1875,-0.203125 -0.390625,-0.203125 -0.765625,-0.03125 -1.03125,-0.1875 -1.34375,-0.9375 z m 0,0"
               id="path1"
               style="fill:#0000ff" />
          </g>
        </g>
        <g
           fill="#000000"
           fill-opacity="1"
           id="g4"
           transform="matrix(0.0352778,0,0,0.0352778,-0.103933,-0.0706481)"
           style="fill:#0000ff">
          <g
             id="use3"
             transform="translate(19.205,19.211)"
             style="fill:#0000ff">
            <path
               d="m 4.125,-9.1875 c 0,-0.34375 0,-0.34375 -0.28125,-0.34375 C 3.5,-9.15625 2.78125,-8.625 1.3125,-8.625 v 0.421875 c 0.328125,0 1.046875,0 1.828125,-0.375 v 7.46875 c 0,0.515625 -0.046875,0.6875 -1.296875,0.6875 H 1.390625 V 0 c 0.390625,-0.03125 1.78125,-0.03125 2.25,-0.03125 0.46875,0 1.859375,0 2.234375,0.03125 V -0.421875 H 5.4375 c -1.265625,0 -1.3125,-0.171875 -1.3125,-0.6875 z m 0,0"
               id="path2"
               style="fill:#0000ff" />
          </g>
        </g>
      </g>
      <g
         inkscape:label=""
         transform="translate(10.778206,3.3102637)"
         id="g11"
         style="fill:#ff0000">
        <g
           fill="#000000"
           fill-opacity="1"
           id="g8"
           transform="matrix(0.0352778,0,0,0.0352778,-0.103933,-0.0706481)"
           style="fill:#ff0000">
          <g
             id="g7"
             transform="translate(1.993,16.112)"
             style="fill:#ff0000">
            <path
               d="m 10.328125,-8.34375 c -0.01563,-0.0625 -0.109375,-0.234375 -0.109375,-0.296875 0,-0.015625 0.03125,-0.03125 0.375,-0.296875 l 2,-1.578125 c 2.78125,-2.140625 3.6875,-2.875 5.109375,-3 0.140625,-0.01563 0.34375,-0.01563 0.34375,-0.359375 0,-0.125 -0.0625,-0.234375 -0.21875,-0.234375 -0.234375,0 -0.484375,0.04687 -0.703125,0.04687 h -0.78125 c -0.640625,0 -1.328125,-0.04687 -1.953125,-0.04687 -0.140625,0 -0.390625,0 -0.390625,0.375 0,0.203125 0.15625,0.21875 0.28125,0.21875 0.21875,0.03125 0.484375,0.109375 0.484375,0.40625 0,0.40625 -0.609375,0.90625 -0.78125,1.03125 l -8.09375,6.296875 1.703125,-6.8125 c 0.1875,-0.703125 0.234375,-0.921875 1.703125,-0.921875 0.390625,0 0.578125,0 0.578125,-0.390625 0,-0.203125 -0.203125,-0.203125 -0.3125,-0.203125 -0.375,0 -0.796875,0.04687 -1.203125,0.04687 h -2.4375 c -0.359375,0 -0.8125,-0.04687 -1.1875,-0.04687 -0.171875,0 -0.390625,0 -0.390625,0.390625 0,0.203125 0.1875,0.203125 0.484375,0.203125 1.265625,0 1.265625,0.171875 1.265625,0.40625 0,0.03125 0,0.15625 -0.078125,0.46875 L 3.21875,-1.53125 C 3.03125,-0.8125 3,-0.59375 1.546875,-0.59375 c -0.390625,0 -0.59375,0 -0.59375,0.359375 C 0.953125,0 1.140625,0 1.265625,0 1.65625,0 2.0625,-0.046875 2.453125,-0.046875 H 4.875 C 5.265625,-0.046875 5.703125,0 6.09375,0 c 0.171875,0 0.390625,0 0.390625,-0.390625 0,-0.203125 -0.1875,-0.203125 -0.5,-0.203125 -1.25,0 -1.25,-0.171875 -1.25,-0.375 0,-0.140625 0.125,-0.65625 0.203125,-1 L 5.75,-5.171875 8.875,-7.625 c 0.609375,1.328125 1.703125,3.96875 2.546875,6 0.0625,0.109375 0.109375,0.234375 0.109375,0.390625 0,0.609375 -0.828125,0.640625 -1.015625,0.640625 -0.1875,0 -0.390625,0 -0.390625,0.390625 C 10.125,0 10.34375,0 10.40625,0 11.140625,0 11.890625,-0.046875 12.625,-0.046875 h 0.984375 c 0.3125,0 0.671875,0.046875 0.96875,0.046875 0.125,0 0.359375,0 0.359375,-0.390625 0,-0.203125 -0.1875,-0.203125 -0.390625,-0.203125 -0.765625,-0.03125 -1.03125,-0.1875 -1.34375,-0.9375 z m 0,0"
               id="path7"
               style="fill:#ff0000" />
          </g>
        </g>
        <g
           fill="#000000"
           fill-opacity="1"
           id="g10"
           transform="matrix(0.0352778,0,0,0.0352778,-0.103933,-0.0706481)"
           style="fill:#ff0000">
          <g
             id="g9"
             transform="translate(19.205,19.211)"
             style="fill:#ff0000">
            <path
               d="M 6.3125,-2.40625 H 6 c -0.046875,0.234375 -0.15625,1.03125 -0.3125,1.265625 -0.09375,0.125 -0.90625,0.125 -1.34375,0.125 H 1.6875 c 0.390625,-0.328125 1.265625,-1.25 1.640625,-1.59375 2.1875,-2.015625 2.984375,-2.75 2.984375,-4.171875 0,-1.65625 -1.3125,-2.75 -2.96875,-2.75 -1.671875,0 -2.640625,1.40625 -2.640625,2.640625 0,0.734375 0.625,0.734375 0.671875,0.734375 0.296875,0 0.671875,-0.21875 0.671875,-0.671875 C 2.046875,-7.234375 1.78125,-7.5 1.375,-7.5 1.25,-7.5 1.21875,-7.5 1.171875,-7.484375 1.453125,-8.46875 2.21875,-9.125 3.15625,-9.125 4.375,-9.125 5.125,-8.109375 5.125,-6.78125 5.125,-5.5625 4.421875,-4.5 3.59375,-3.578125 L 0.703125,-0.34375 V 0 H 5.9375 Z m 0,0"
               id="path8"
               style="fill:#ff0000" />
          </g>
        </g>
      </g>
      <g
         inkscape:label=""
         transform="translate(16.498338,7.6798087)"
         id="g19"
         style="fill:#ff0000">
        <g
           fill="#000000"
           fill-opacity="1"
           id="g18"
           transform="matrix(0.0352778,0,0,0.0352778,-0.103933,-0.0686991)"
           style="fill:#ff0000">
          <g
             id="g17"
             transform="translate(1.993,17.461)"
             style="fill:#ff0000">
            <path
               d="m 10.328125,-8.34375 c -0.01563,-0.0625 -0.109375,-0.234375 -0.109375,-0.296875 0,-0.015625 0.03125,-0.03125 0.375,-0.296875 l 2,-1.578125 c 2.78125,-2.140625 3.6875,-2.875 5.109375,-3 0.140625,-0.01563 0.34375,-0.01563 0.34375,-0.359375 0,-0.125 -0.0625,-0.234375 -0.21875,-0.234375 -0.234375,0 -0.484375,0.04687 -0.703125,0.04687 h -0.78125 c -0.640625,0 -1.328125,-0.04687 -1.953125,-0.04687 -0.140625,0 -0.390625,0 -0.390625,0.375 0,0.203125 0.15625,0.21875 0.28125,0.21875 0.21875,0.03125 0.484375,0.109375 0.484375,0.40625 0,0.40625 -0.609375,0.90625 -0.78125,1.03125 l -8.09375,6.296875 1.703125,-6.8125 c 0.1875,-0.703125 0.234375,-0.921875 1.703125,-0.921875 0.390625,0 0.578125,0 0.578125,-0.390625 0,-0.203125 -0.203125,-0.203125 -0.3125,-0.203125 -0.375,0 -0.796875,0.04687 -1.203125,0.04687 h -2.4375 c -0.359375,0 -0.8125,-0.04687 -1.1875,-0.04687 -0.171875,0 -0.390625,0 -0.390625,0.390625 0,0.203125 0.1875,0.203125 0.484375,0.203125 1.265625,0 1.265625,0.171875 1.265625,0.40625 0,0.03125 0,0.15625 -0.078125,0.46875 L 3.21875,-1.53125 C 3.03125,-0.8125 3,-0.59375 1.546875,-0.59375 c -0.390625,0 -0.59375,0 -0.59375,0.359375 C 0.953125,0 1.140625,0 1.265625,0 1.65625,0 2.0625,-0.046875 2.453125,-0.046875 H 4.875 C 5.265625,-0.046875 5.703125,0 6.09375,0 c 0.171875,0 0.390625,0 0.390625,-0.390625 0,-0.203125 -0.1875,-0.203125 -0.5,-0.203125 -1.25,0 -1.25,-0.171875 -1.25,-0.375 0,-0.140625 0.125,-0.65625 0.203125,-1 L 5.75,-5.171875 8.875,-7.625 c 0.609375,1.328125 1.703125,3.96875 2.546875,6 0.0625,0.109375 0.109375,0.234375 0.109375,0.390625 0,0.609375 -0.828125,0.640625 -1.015625,0.640625 -0.1875,0 -0.390625,0 -0.390625,0.390625 C 10.125,0 10.34375,0 10.40625,0 11.140625,0 11.890625,-0.046875 12.625,-0.046875 h 0.984375 c 0.3125,0 0.671875,0.046875 0.96875,0.046875 0.125,0 0.359375,0 0.359375,-0.390625 0,-0.203125 -0.1875,-0.203125 -0.390625,-0.203125 -0.765625,-0.03125 -1.03125,-0.1875 -1.34375,-0.9375 z m 0,0"
               id="path17"
               style="fill:#ff0000" />
          </g>
        </g>
        <g
           fill="#000000"
           fill-opacity="1"
           id="g5"
           transform="matrix(0.0352778,0,0,0.0352778,-0.103933,-0.0686991)"
           style="fill:#ff0000">
          <g
             id="use4"
             transform="translate(20.688999,9.9630003)"
             style="fill:#ff0000">
            <path
               d="m 3.625,-6.8125 c 0.078125,-0.171875 0.140625,-0.296875 0.140625,-0.453125 0,-0.40625 -0.375,-0.75 -0.828125,-0.75 -0.40625,0 -0.65625,0.265625 -0.75,0.640625 l -1.71875,6.265625 c 0,0.03125 -0.046875,0.1875 -0.046875,0.203125 0,0.15625 0.359375,0.265625 0.484375,0.265625 0.078125,0 0.09375,-0.046875 0.1875,-0.234375 z m 0,0"
               id="path18"
               style="fill:#ff0000" />
          </g>
        </g>
        <g
           fill="#000000"
           fill-opacity="1"
           id="g6"
           transform="matrix(0.0352778,0,0,0.0352778,-0.103933,-0.0686991)"
           style="fill:#ff0000">
          <g
             id="use5"
             transform="translate(19.205,22.569)"
             style="fill:#ff0000">
            <path
               d="M 6.3125,-2.40625 H 6 c -0.046875,0.234375 -0.15625,1.03125 -0.3125,1.265625 -0.09375,0.125 -0.90625,0.125 -1.34375,0.125 H 1.6875 c 0.390625,-0.328125 1.265625,-1.25 1.640625,-1.59375 2.1875,-2.015625 2.984375,-2.75 2.984375,-4.171875 0,-1.65625 -1.3125,-2.75 -2.96875,-2.75 -1.671875,0 -2.640625,1.40625 -2.640625,2.640625 0,0.734375 0.625,0.734375 0.671875,0.734375 0.296875,0 0.671875,-0.21875 0.671875,-0.671875 C 2.046875,-7.234375 1.78125,-7.5 1.375,-7.5 1.25,-7.5 1.21875,-7.5 1.171875,-7.484375 1.453125,-8.46875 2.21875,-9.125 3.15625,-9.125 4.375,-9.125 5.125,-8.109375 5.125,-6.78125 5.125,-5.5625 4.421875,-4.5 3.59375,-3.578125 L 0.703125,-0.34375 V 0 H 5.9375 Z m 0,0"
               id="path19"
               style="fill:#ff0000" />
          </g>
        </g>
      </g>
      <g
         inkscape:label=""
         transform="translate(17.027979,11.228409)"
         id="g26"
         style="fill:#0000ff">
        <g
           fill="#000000"
           fill-opacity="1"
           id="g21"
           transform="matrix(0.0352778,0,0,0.0352778,-0.103933,-0.0686991)"
           style="fill:#0000ff">
          <g
             id="g20"
             transform="translate(1.993,17.461)"
             style="fill:#0000ff">
            <path
               d="m 10.328125,-8.34375 c -0.01563,-0.0625 -0.109375,-0.234375 -0.109375,-0.296875 0,-0.015625 0.03125,-0.03125 0.375,-0.296875 l 2,-1.578125 c 2.78125,-2.140625 3.6875,-2.875 5.109375,-3 0.140625,-0.01563 0.34375,-0.01563 0.34375,-0.359375 0,-0.125 -0.0625,-0.234375 -0.21875,-0.234375 -0.234375,0 -0.484375,0.04687 -0.703125,0.04687 h -0.78125 c -0.640625,0 -1.328125,-0.04687 -1.953125,-0.04687 -0.140625,0 -0.390625,0 -0.390625,0.375 0,0.203125 0.15625,0.21875 0.28125,0.21875 0.21875,0.03125 0.484375,0.109375 0.484375,0.40625 0,0.40625 -0.609375,0.90625 -0.78125,1.03125 l -8.09375,6.296875 1.703125,-6.8125 c 0.1875,-0.703125 0.234375,-0.921875 1.703125,-0.921875 0.390625,0 0.578125,0 0.578125,-0.390625 0,-0.203125 -0.203125,-0.203125 -0.3125,-0.203125 -0.375,0 -0.796875,0.04687 -1.203125,0.04687 h -2.4375 c -0.359375,0 -0.8125,-0.04687 -1.1875,-0.04687 -0.171875,0 -0.390625,0 -0.390625,0.390625 0,0.203125 0.1875,0.203125 0.484375,0.203125 1.265625,0 1.265625,0.171875 1.265625,0.40625 0,0.03125 0,0.15625 -0.078125,0.46875 L 3.21875,-1.53125 C 3.03125,-0.8125 3,-0.59375 1.546875,-0.59375 c -0.390625,0 -0.59375,0 -0.59375,0.359375 C 0.953125,0 1.140625,0 1.265625,0 1.65625,0 2.0625,-0.046875 2.453125,-0.046875 H 4.875 C 5.265625,-0.046875 5.703125,0 6.09375,0 c 0.171875,0 0.390625,0 0.390625,-0.390625 0,-0.203125 -0.1875,-0.203125 -0.5,-0.203125 -1.25,0 -1.25,-0.171875 -1.25,-0.375 0,-0.140625 0.125,-0.65625 0.203125,-1 L 5.75,-5.171875 8.875,-7.625 c 0.609375,1.328125 1.703125,3.96875 2.546875,6 0.0625,0.109375 0.109375,0.234375 0.109375,0.390625 0,0.609375 -0.828125,0.640625 -1.015625,0.640625 -0.1875,0 -0.390625,0 -0.390625,0.390625 C 10.125,0 10.34375,0 10.40625,0 11.140625,0 11.890625,-0.046875 12.625,-0.046875 h 0.984375 c 0.3125,0 0.671875,0.046875 0.96875,0.046875 0.125,0 0.359375,0 0.359375,-0.390625 0,-0.203125 -0.1875,-0.203125 -0.390625,-0.203125 -0.765625,-0.03125 -1.03125,-0.1875 -1.34375,-0.9375 z m 0,0"
               id="path20"
               style="fill:#0000ff" />
          </g>
        </g>
        <g
           fill="#000000"
           fill-opacity="1"
           id="g23"
           transform="matrix(0.0352778,0,0,0.0352778,-0.103933,-0.0686991)"
           style="fill:#0000ff">
          <g
             id="g22"
             transform="translate(20.688999,9.9630003)"
             style="fill:#0000ff">
            <path
               d="m 3.625,-6.8125 c 0.078125,-0.171875 0.140625,-0.296875 0.140625,-0.453125 0,-0.40625 -0.375,-0.75 -0.828125,-0.75 -0.40625,0 -0.65625,0.265625 -0.75,0.640625 l -1.71875,6.265625 c 0,0.03125 -0.046875,0.1875 -0.046875,0.203125 0,0.15625 0.359375,0.265625 0.484375,0.265625 0.078125,0 0.09375,-0.046875 0.1875,-0.234375 z m 0,0"
               id="path21"
               style="fill:#0000ff" />
          </g>
        </g>
        <g
           fill="#000000"
           fill-opacity="1"
           id="g25"
           transform="matrix(0.0352778,0,0,0.0352778,-0.103933,-0.0686991)"
           style="fill:#0000ff">
          <g
             id="g24"
             transform="translate(19.205,22.569)"
             style="fill:#0000ff">
            <path
               d="m 4.125,-9.1875 c 0,-0.34375 0,-0.34375 -0.28125,-0.34375 C 3.5,-9.15625 2.78125,-8.625 1.3125,-8.625 v 0.421875 c 0.328125,0 1.046875,0 1.828125,-0.375 v 7.46875 c 0,0.515625 -0.046875,0.6875 -1.296875,0.6875 H 1.390625 V 0 c 0.390625,-0.03125 1.78125,-0.03125 2.25,-0.03125 0.46875,0 1.859375,0 2.234375,0.03125 V -0.421875 H 5.4375 c -1.265625,0 -1.3125,-0.171875 -1.3125,-0.6875 z m 0,0"
               id="path23"
               style="fill:#0000ff" />
          </g>
        </g>
      </g>
    </g>
  </g>
</svg>
